<svg xmlns="http://www.w3.org/2000/svg" xmlns:xlink="http://www.w3.org/1999/xlink" width="200" height="200" viewBox="0 0 200 200.5289"><defs><linearGradient id="a"><stop stop-color="#ffb142" offset="0"/><stop stop-color="#ffb141" offset=".887"/><stop stop-color="#c87600" offset="1"/></linearGradient><linearGradient gradientTransform="matrix(.6415 0 0 -.7781 -31.166 4.888)" gradientUnits="userSpaceOnUse" id="b" y2="-137.292" x2="361.629" y1="-137.292" x1="348.288"><stop stop-color="#fbb045" offset="0"/><stop stop-color="#c77829" offset="1"/></linearGradient><radialGradient r="123.545" fy="-8.88" fx="414.682" cy="-8.88" cx="414.682" gradientTransform="matrix(0 .89419 -1.94793 0 598.733 580.576)" gradientUnits="userSpaceOnUse" id="j" xlink:href="#a"/><linearGradient y2=".5" x2=".633" y1=".5" x1=".435" id="k" xlink:href="#b"/><filter id="i" x="-.045" width="1.089" y="-.03" height="1.06" color-interpolation-filters="sRGB"><feGaussianBlur stdDeviation="6.933"/></filter><filter id="h" x="-.05" width="1.099" y="-.064" height="1.127" color-interpolation-filters="sRGB"><feGaussianBlur stdDeviation=".384"/></filter><filter id="f" x="-.045" width="1.09" y="-.06" height="1.12" color-interpolation-filters="sRGB"><feGaussianBlur stdDeviation=".385"/></filter><filter id="g" x="-.038" width="1.075" y="-.057" height="1.114" color-interpolation-filters="sRGB"><feGaussianBlur stdDeviation=".385"/></filter><filter id="e" x="-.028" width="1.055" y="-.042" height="1.083" color-interpolation-filters="sRGB"><feGaussianBlur stdDeviation=".385"/></filter><filter id="d" x="-.01" width="1.02" y="-.015" height="1.031" color-interpolation-filters="sRGB"><feGaussianBlur stdDeviation=".384"/></filter><radialGradient xlink:href="#a" id="n" gradientUnits="userSpaceOnUse" gradientTransform="matrix(0 .89419 -1.94793 0 598.733 580.576)" cx="414.682" cy="-8.88" fx="414.682" fy="-8.88" r="123.545"/><linearGradient xlink:href="#b" id="o" x1=".435" y1=".5" x2=".633" y2=".5"/><radialGradient xlink:href="#a" id="r" gradientUnits="userSpaceOnUse" gradientTransform="matrix(0 .89419 -1.94793 0 598.733 580.576)" cx="414.682" cy="-8.88" fx="414.682" fy="-8.88" r="123.545"/><linearGradient xlink:href="#b" id="s" x1=".435" y1=".5" x2=".633" y2=".5"/><radialGradient xlink:href="#a" id="p" gradientUnits="userSpaceOnUse" gradientTransform="matrix(0 .89419 -1.94793 0 598.733 580.576)" cx="414.682" cy="-8.88" fx="414.682" fy="-8.88" r="123.545"/><linearGradient xlink:href="#b" id="q" x1=".435" y1=".5" x2=".633" y2=".5"/><radialGradient xlink:href="#a" id="l" gradientUnits="userSpaceOnUse" gradientTransform="matrix(0 .89419 -1.94793 0 598.733 580.576)" cx="414.682" cy="-8.88" fx="414.682" fy="-8.88" r="123.545"/><linearGradient xlink:href="#b" id="m" x1=".435" y1=".5" x2=".633" y2=".5"/></defs><g transform="translate(4.012 88.357)"><g id="c" fill-rule="evenodd" stroke="#000" stroke-linecap="round" stroke-linejoin="round"><path d="M-140.53-18.99h100v100h-100z" fill="#dfe0e5" transform="translate(231.071 -44.06) scale(1.6264)"/><path d="M-133.53-13.99h86c1.109 0 2 .892 2 2v76c0 1.108-.891 2-2 2h-86c-1.107 0-2-.892-2-2v-76c0-1.108.893-2 2-2z" fill="#d5e5ff" transform="translate(231.071 -44.06) scale(1.6264)"/></g><use xlink:href="#c" transform="rotate(-1.624 123.926 137.72)" width="100%" height="100%" fill="#db1717" stroke="#db1717"/><use xlink:href="#c" transform="rotate(3.449 6.93 141.71)" width="100%" height="100%" fill="#a3ff8c" stroke="#a3ff8c"/><use xlink:href="#c" transform="rotate(5.6 31.176 64.167)" width="100%" height="100%" fill="#fff" stroke="#fff"/><use xlink:href="#c" transform="rotate(10.74 65.305 96.961)" width="100%" height="100%" fill="#fff" stroke="#fff"/></g><g transform="matrix(1.6264 0 0 1.6264 6.525 13.196)"><rect width="90" height="80" x="5" y="5" rx="2" ry="2" fill="#acf" fill-rule="evenodd" stroke="#000" stroke-linecap="round" stroke-linejoin="round"/><g fill-rule="evenodd"><path d="M30.187 25.31c-5.27.416-8.344.346-13.14 2.418-4.418 1.798-8.391 7.018-12.114 10.973-.48 1.459-.08 3.114-.211 4.65v39.976c.362 1.22 1.636 2.17 2.948 1.876h85.747c1.22-.362 2.17-1.636 1.876-2.947V45.334c-.522-1.413-2.036-2.194-2.978-3.34-4.312-4.126-8.593-8.399-13.67-11.589-1.778-1.265-4.268-1.24-5.988.115-3.637 2.797-5.614 7.104-7.968 10.923-1.88 2.927-3.358 6.448-6.386 8.432-1.538 1.09-3.425.071-4.413-1.257-3.78-4.522-6.1-9.982-9.054-15.03-3.825-3.875-6.686-5.686-11.388-7.668-1.033-.411-2.146-.645-3.261-.61z" transform="matrix(1.00264 0 0 1.00264 -.132 0)" fill="#338000" filter="url(#d)"/><path d="M31.292 22.297c-5.876.112-11.275 2.997-16.033 6.218-1.172.91-2.546 1.717-3.316 3.007.106 1.404 1.843 1.777 2.72 2.668 4.85 3.441 9.57 7.09 14.551 10.335 1.325.144 2.334-1.056 3.489-1.545 4.13-2.476 8.309-4.922 12.347-7.519.944-1.09-.566-2.277-1.002-3.291-2.442-4.03-5.518-8.15-10.17-9.706-.842-.224-1.724-.158-2.586-.167z" fill="#c4c8b7" filter="url(#e)"/><path d="M75.85 29.372c-2.37-.087-4.182 1.641-5.634 3.298-1.105 1.403-2.65 2.725-2.992 4.548.16 1.283 1.75 1.595 2.574 2.395 2.55 1.7 4.97 3.638 7.648 5.128 1.338.027 2.297-1.223 3.433-1.789 2.24-1.547 4.557-3.025 6.714-4.663.95-1.165-.774-2.02-1.48-2.783-2.607-2.178-5.257-4.43-8.352-5.877-.614-.205-1.266-.273-1.91-.257z" fill="#c4c8b7" filter="url(#f)"/><path d="M30.97 22.477c-3.214-.009-6.428.904-9.242 2.37.491.428 1.516.02 1.937.446-1.833 1.692-4.035 3.128-5.827 4.76 2.36-.564 4.736-1.587 7.06-1.986-.893 2.283-2.556 4.594-3.486 6.617 2.012-1.498 3.89-3.372 5.944-4.7-.208 2.435-.67 4.976-.77 7.384 1.307-2.033 2.241-4.404 3.61-6.329.902 2.439 1.425 5.025 2.168 7.523.293-2.52.32-5.163.833-7.609 1.814 1.58 3.081 3.895 4.732 5.554-.56-2.362-1.517-4.717-1.975-7.047 2.213 1.014 4.317 2.462 6.486 3.43-1.38-1.987-3.164-3.756-4.511-5.717.753-.178 1.725.294 2.398-.047-1.753-2.168-4.223-3.79-6.814-4.727l-2.544.078z" fill="#fff" filter="url(#g)"/><path d="M75.45 29.343c-2.765.195-4.724 2.539-6.285 4.571.85-.024 1.874-.678 2.625-.55-.703 1.918-2.177 3.536-2.69 5.504.714.091 1.373-.832 1.994-1.188 1.065-.742 1.968-1.82 3.08-2.435-.081 2.28-.679 4.594-.58 6.844 1.424-1.693 2.09-4.034 3.427-5.782.923 2.42 1.426 5.018 2.175 7.508.296-2.528.333-5.164.82-7.626 1.547 1.208 2.36 3.276 4.003 4.402.491-.36-.114-1.304-.14-1.825-.344-1.336-.915-2.7-1.107-4.028 1.683.687 3.254 1.91 4.898 2.504-1.109-1.633-2.918-2.73-4.395-4.035-2.318-1.654-4.793-3.942-7.826-3.864z" transform="matrix(1.00264 0 0 1.00264 -.132 0)" fill="#fff" filter="url(#h)"/></g><g transform="matrix(.1257 0 0 .1257 4.332 15.265)" filter="url(#i)"><title>Layer 1</title><path d="M317.664 264.433c-68.15 24.632 20.065 134.041-53.572 229.504-13.61 17.647 81.973 2.977 115.767-94.804 32.861-95.09 1.603-153.113-62.195-134.7z" stroke="#010101" stroke-width="4"/><path d="M317.664 264.433c-68.15 24.632 20.065 134.041-53.572 229.504-13.61 17.647 81.973 2.977 115.767-94.804 32.861-95.09 1.603-153.113-62.195-134.7z" stroke="#010101" stroke-width="4"/><path d="M339.988 261.032c-.584 0-1.179.03-1.77.044 22.965 18.6 32.684 61.646 20.938 121.513-15.615 79.583-75.895 113.915-95.93 115.728 6.506 9.292 86.37-11.57 116.647-99.176 28.755-83.203 8.387-138.038-39.885-138.109z" fill-opacity=".314"/><path d="M96.053 264.433c68.153 24.632-20.063 134.041 53.574 229.504 13.61 17.647-81.975 2.977-115.767-94.804-32.86-95.09-1.602-153.113 62.193-134.7z" stroke="#010101" stroke-width="4"/><path d="M22.853 306.861c-4.888 23.501-1.84 55.063 11.023 92.281 33.792 97.78 129.37 112.46 115.76 94.817-5.82-7.547-10.654-15.198-14.609-22.871-26.845-6.465-76.562-34.707-99.026-99.71-8.327-24.102-12.541-45.82-13.148-64.517zm100.975 9.031c-1.25 12.154-2.628 25.075-3.231 38.621 1.406-13.94 2.946-26.968 3.23-38.62z" fill-opacity=".314"/><path d="M156.877 464.844C88.763 471.89 10.64 527.289 41.692 539.37c31.051 12.08 121.175 17.12 138.204 3.025 8.75-7.243 24.406-25.382 26.25-42.402 1.848 17.019 17.458 35.16 26.207 42.402 17.028 14.095 107.197 9.056 138.249-3.025 31.051-12.082-47.072-67.48-115.185-74.527-35.074 3.397-47.69 15.243-49.27 28.832-1.58-13.59-14.197-25.435-49.27-28.832z" fill-rule="evenodd" stroke="#000" stroke-width="5"/><path d="M156.888 464.864c-33.432 3.459-69.244 18.566-93.405 34.483 36.593 17.01 81.336 27.492 129.837 28.698 6.215-8.219 11.783-18.296 12.838-28.031 1.047 9.644 6.484 19.632 12.616 27.809 47.705-2.03 91.52-13.022 127.182-30.345-24.076-15.222-58.395-29.29-90.528-32.614-35.074 3.398-47.69 15.243-49.27 28.832-1.58-13.59-14.196-25.434-49.27-28.832z" fill-opacity=".314" fill-rule="evenodd"/><path d="M362.027 365.002c.026 86.151-69.453 156.005-155.167 156.005S51.668 451.152 51.695 365.002c-.027-86.151 69.451-156.004 155.165-156.004 85.714-.002 155.191 69.853 155.167 156.004z" stroke="#010101" stroke-width="4" stroke-linecap="round" stroke-linejoin="round"/><path d="M352.648 311.497c.108 2.395.177 4.834.177 7.253 0 86.09-69.507 155.952-155.158 155.952-66.952 0-124.08-42.714-145.82-102.471 3.759 82.741 71.784 148.744 155.027 148.744 85.65 0 155.159-69.862 155.159-155.952 0-18.797-3.312-36.833-9.385-53.526z" fill-opacity=".314"/><path d="M246.256 178.71l-86.012 2.225s2.107 19.98-2.7 41.824a153.88 153.88 0 0 0-21.47 9.121c24.034 20.176 52.046 32.57 69.81 32.57 18.595 0 46.883-12.608 70.872-33.06-7.942-4.035-16.267-7.425-24.922-10.055-6.273-22.209-5.578-42.625-5.578-42.625z" opacity=".32" stroke="#010101" stroke-width="4" stroke-linecap="round" stroke-linejoin="round"/><path d="M276.445 257.443c-.247 15.476-31.87 24.205-71.183 24.205s-71.182-10.837-71.182-24.205c14.353-11.626 31.87-24.204 71.182-24.204 39.314 0 52.128 7.734 71.183 24.204z" stroke="#000" stroke-width="3"/><path d="M134.78 258.7c35.121-25.382 25.453-83.478 25.453-83.478l83.29-4.924s-2.15 61.268 33.689 87.089" stroke="#010101" stroke-width="4" stroke-linecap="round" stroke-linejoin="round"/><path d="M244.742 181.64l-81.306 2.12s.065.869.167 2.501c.052.767.076 1.333.125 2.502.01.186.035.313.042.509.021.552.026.985.042 1.61.006.182-.004.365 0 .552.021.958.041 1.95.042 3.053 0 .848-.026 1.703-.042 2.628-.006.283.007.517 0 .806a143.344 143.344 0 0 1-.21 4.96c-.01.163.01.303 0 .467.78 5.309.202 8.317-2.484 20.267-1.403 6.428-3.65 13.035-6.554 19.291 18.95 12.87 38.91 26.135 52.346 26.135 13.776 0 32.85-11.753 51.516-24.327-3.73-6.802-8.045-16.454-10.027-23.528-3.28-9.711-1.786-13.558-2.652-21.06a157.463 157.463 0 0 1-.586-6.106c-.142-1.874-.23-3.582-.293-5.088a139.77 139.77 0 0 1-.126-3.943c-.025-2.065 0-3.35 0-3.35z" opacity=".32" stroke="#010101" stroke-width="3.796" stroke-linecap="round" stroke-linejoin="round"/><path d="M275.207 26.699c-18.441-13.041-41.848-20.69-69.338-20.69-25.014 0-46.352 5.976-63.66 16.359-19.798 13.753-35.697 33.735-45.45 57.467-4.494 13.227-6.827 27.626-6.827 42.703 0 64.32 79.505 116.529 115.938 116.529 37.847 0 115.936-52.21 115.936-116.53 0-15.536-2.593-30.355-7.512-43.911-8.79-20.827-22.332-38.707-39.087-51.927z" stroke="#010101" stroke-width="4" stroke-linecap="round" stroke-linejoin="round"/><path d="M211.364 133.091c-15.8 0-32.977 16.64-32.288 27.145 9.487 37.207-30.663 54.29 34.35 54.29 65.014 0 17.664-33.548 29.542-55.167-.685-12.256-21.293-27.142-31.604-26.268z" opacity=".32" stroke="#010101" stroke-width="6.091"/><path d="M209.68 123.468c-23.567 0-49.188 24.604-48.16 40.138 14.151 55.018-45.737 80.278 51.236 80.278 96.972 0 26.347-49.607 44.064-81.574-1.022-18.124-31.76-40.135-47.14-38.842z" stroke="#010101" stroke-width="4"/><path d="M175.721 47.554c-22.31 0-40.427 21.056-40.427 46.999s18.118 46.997 40.427 46.997c13.11 0 24.742-7.279 32.127-18.541 7.384 11.27 19.042 18.54 32.159 18.54 22.306 0 40.426-21.055 40.426-46.996 0-25.945-18.12-46.999-40.426-46.999-13.115 0-24.775 7.273-32.16 18.543-7.384-11.26-19.02-18.543-32.126-18.543z" stroke="#010101" stroke-width="5" stroke-linecap="round"/><path d="M205.294 97.733c0 6.497-5.24 11.762-11.703 11.762-6.464 0-11.703-5.266-11.703-11.762s5.24-11.763 11.703-11.763c6.463 0 11.703 5.267 11.703 11.763z" stroke="#010101" stroke-width="3.169" stroke-linecap="round"/><path d="M192.401 93.613a3.041 3.041 0 0 1-3.034 3.051 3.043 3.043 0 0 1-3.036-3.05 3.044 3.044 0 0 1 3.036-3.054 3.044 3.044 0 0 1 3.034 3.053z"/><g><path d="M234.934 97.733c0 6.497-5.24 11.762-11.703 11.762-6.463 0-11.703-5.266-11.703-11.762s5.24-11.763 11.703-11.763c6.463 0 11.703 5.267 11.703 11.763z" stroke="#010101" stroke-width="3.169" stroke-linecap="round"/><path d="M222.042 93.613a3.043 3.043 0 0 1-3.036 3.051 3.043 3.043 0 0 1-3.036-3.05 3.044 3.044 0 0 1 3.036-3.054 3.047 3.047 0 0 1 3.036 3.053z"/></g><path d="M217.712 53.113c10.33-47.667 27.75-54.12 27.75-54.12s-9.69 24.865-.913 17.948c13.59-10.71 56.797 22.853 56.797 22.853S244.1 14.41 217.712 53.113zM194.027 53.113c-10.33-47.667-27.75-54.12-27.75-54.12s9.689 24.865.913 17.948c-13.59-10.71-56.797 22.853-56.797 22.853s57.246-25.384 83.634 13.319z" fill-rule="evenodd" stroke="#000" stroke-width="3.781" stroke-linejoin="round"/></g><g transform="matrix(.1257 0 0 .1257 4.87 15.086)"><title>Layer 1</title><path d="M317.664 264.433c-68.15 24.632 20.065 134.041-53.572 229.504-13.61 17.647 81.973 2.977 115.767-94.804 32.861-95.09 1.603-153.113-62.195-134.7z" fill="#fff" stroke="#010101" stroke-width="4"/><path d="M317.664 264.433c-68.15 24.632 20.065 134.041-53.572 229.504-13.61 17.647 81.973 2.977 115.767-94.804 32.861-95.09 1.603-153.113-62.195-134.7z" fill="#fff" stroke="#010101" stroke-width="4"/><path d="M339.988 261.032c-.584 0-1.179.03-1.77.044 22.965 18.6 32.684 61.646 20.938 121.513-15.615 79.583-75.895 113.915-95.93 115.728 6.506 9.292 86.37-11.57 116.647-99.176 28.755-83.203 8.387-138.038-39.885-138.109z" fill="#010101" fill-opacity=".314"/><path d="M96.053 264.433c68.153 24.632-20.063 134.041 53.574 229.504 13.61 17.647-81.975 2.977-115.767-94.804-32.86-95.09-1.602-153.113 62.193-134.7z" fill="#fff" stroke="#010101" stroke-width="4"/><path d="M22.853 306.861c-4.888 23.501-1.84 55.063 11.023 92.281 33.792 97.78 129.37 112.46 115.76 94.817-5.82-7.547-10.654-15.198-14.609-22.871-26.845-6.465-76.562-34.707-99.026-99.71-8.327-24.102-12.541-45.82-13.148-64.517zm100.975 9.031c-1.25 12.154-2.628 25.075-3.231 38.621 1.406-13.94 2.946-26.968 3.23-38.62z" fill="#010101" fill-opacity=".314"/><path d="M156.877 464.844C88.763 471.89 10.64 527.289 41.692 539.37c31.051 12.08 121.175 17.12 138.204 3.025 8.75-7.243 24.406-25.382 26.25-42.402 1.848 17.019 17.458 35.16 26.207 42.402 17.028 14.095 107.197 9.056 138.249-3.025 31.051-12.082-47.072-67.48-115.185-74.527-35.074 3.397-47.69 15.243-49.27 28.832-1.58-13.59-14.197-25.435-49.27-28.832z" fill="url(#j)" fill-rule="evenodd" stroke="#000" stroke-width="5"/><path d="M156.888 464.864c-33.432 3.459-69.244 18.566-93.405 34.483 36.593 17.01 81.336 27.492 129.837 28.698 6.215-8.219 11.783-18.296 12.838-28.031 1.047 9.644 6.484 19.632 12.616 27.809 47.705-2.03 91.52-13.022 127.182-30.345-24.076-15.222-58.395-29.29-90.528-32.614-35.074 3.398-47.69 15.243-49.27 28.832-1.58-13.59-14.196-25.434-49.27-28.832z" fill-opacity=".314" fill-rule="evenodd"/><path d="M362.027 365.002c.026 86.151-69.453 156.005-155.167 156.005S51.668 451.152 51.695 365.002c-.027-86.151 69.451-156.004 155.165-156.004 85.714-.002 155.191 69.853 155.167 156.004z" fill="#fff" stroke="#010101" stroke-width="4" stroke-linecap="round" stroke-linejoin="round"/><path d="M352.648 311.497c.108 2.395.177 4.834.177 7.253 0 86.09-69.507 155.952-155.158 155.952-66.952 0-124.08-42.714-145.82-102.471 3.759 82.741 71.784 148.744 155.027 148.744 85.65 0 155.159-69.862 155.159-155.952 0-18.797-3.312-36.833-9.385-53.526z" fill="#010101" fill-opacity=".314"/><path d="M246.256 178.71l-86.012 2.225s2.107 19.98-2.7 41.824a153.88 153.88 0 0 0-21.47 9.121c24.034 20.176 52.046 32.57 69.81 32.57 18.595 0 46.883-12.608 70.872-33.06-7.942-4.035-16.267-7.425-24.922-10.055-6.273-22.209-5.578-42.625-5.578-42.625z" opacity=".32" fill="#010101" stroke="#010101" stroke-width="4" stroke-linecap="round" stroke-linejoin="round"/><path d="M276.445 257.443c-.247 15.476-31.87 24.205-71.183 24.205s-71.182-10.837-71.182-24.205c14.353-11.626 31.87-24.204 71.182-24.204 39.314 0 52.128 7.734 71.183 24.204z" fill="#fff" stroke="#000" stroke-width="3"/><path d="M134.78 258.7c35.121-25.382 25.453-83.478 25.453-83.478l83.29-4.924s-2.15 61.268 33.689 87.089" fill="#fff" stroke="#010101" stroke-width="4" stroke-linecap="round" stroke-linejoin="round"/><path d="M244.742 181.64l-81.306 2.12s.065.869.167 2.501c.052.767.076 1.333.125 2.502.01.186.035.313.042.509.021.552.026.985.042 1.61.006.182-.004.365 0 .552.021.958.041 1.95.042 3.053 0 .848-.026 1.703-.042 2.628-.006.283.007.517 0 .806a143.344 143.344 0 0 1-.21 4.96c-.01.163.01.303 0 .467.78 5.309.202 8.317-2.484 20.267-1.403 6.428-3.65 13.035-6.554 19.291 18.95 12.87 38.91 26.135 52.346 26.135 13.776 0 32.85-11.753 51.516-24.327-3.73-6.802-8.045-16.454-10.027-23.528-3.28-9.711-1.786-13.558-2.652-21.06a157.463 157.463 0 0 1-.586-6.106c-.142-1.874-.23-3.582-.293-5.088a139.77 139.77 0 0 1-.126-3.943c-.025-2.065 0-3.35 0-3.35z" opacity=".32" fill="#010101" stroke="#010101" stroke-width="3.796" stroke-linecap="round" stroke-linejoin="round"/><path d="M275.207 26.699c-18.441-13.041-41.848-20.69-69.338-20.69-25.014 0-46.352 5.976-63.66 16.359-19.798 13.753-35.697 33.735-45.45 57.467-4.494 13.227-6.827 27.626-6.827 42.703 0 64.32 79.505 116.529 115.938 116.529 37.847 0 115.936-52.21 115.936-116.53 0-15.536-2.593-30.355-7.512-43.911-8.79-20.827-22.332-38.707-39.087-51.927z" fill="#fff" stroke="#010101" stroke-width="4" stroke-linecap="round" stroke-linejoin="round"/><path d="M211.364 133.091c-15.8 0-32.977 16.64-32.288 27.145 9.487 37.207-30.663 54.29 34.35 54.29 65.014 0 17.664-33.548 29.542-55.167-.685-12.256-21.293-27.142-31.604-26.268z" opacity=".32" fill="#010101" stroke="#010101" stroke-width="6.091"/><path d="M209.68 123.468c-23.567 0-49.188 24.604-48.16 40.138 14.151 55.018-45.737 80.278 51.236 80.278 96.972 0 26.347-49.607 44.064-81.574-1.022-18.124-31.76-40.135-47.14-38.842z" fill="url(#k)" stroke="#010101" stroke-width="4"/><path d="M175.721 47.554c-22.31 0-40.427 21.056-40.427 46.999s18.118 46.997 40.427 46.997c13.11 0 24.742-7.279 32.127-18.541 7.384 11.27 19.042 18.54 32.159 18.54 22.306 0 40.426-21.055 40.426-46.996 0-25.945-18.12-46.999-40.426-46.999-13.115 0-24.775 7.273-32.16 18.543-7.384-11.26-19.02-18.543-32.126-18.543z" fill="#fff" stroke="#010101" stroke-width="5" stroke-linecap="round"/><path d="M205.294 97.733c0 6.497-5.24 11.762-11.703 11.762-6.464 0-11.703-5.266-11.703-11.762s5.24-11.763 11.703-11.763c6.463 0 11.703 5.267 11.703 11.763z" fill="#010101" stroke="#010101" stroke-width="3.169" stroke-linecap="round"/><path d="M192.401 93.613a3.041 3.041 0 0 1-3.034 3.051 3.043 3.043 0 0 1-3.036-3.05 3.044 3.044 0 0 1 3.036-3.054 3.044 3.044 0 0 1 3.034 3.053z" fill="#fff"/><g><path d="M234.934 97.733c0 6.497-5.24 11.762-11.703 11.762-6.463 0-11.703-5.266-11.703-11.762s5.24-11.763 11.703-11.763c6.463 0 11.703 5.267 11.703 11.763z" fill="#010101" stroke="#010101" stroke-width="3.169" stroke-linecap="round"/><path d="M222.042 93.613a3.043 3.043 0 0 1-3.036 3.051 3.043 3.043 0 0 1-3.036-3.05 3.044 3.044 0 0 1 3.036-3.054 3.047 3.047 0 0 1 3.036 3.053z" fill="#fff"/></g><path d="M217.712 53.113c10.33-47.667 27.75-54.12 27.75-54.12s-9.69 24.865-.913 17.948c13.59-10.71 56.797 22.853 56.797 22.853S244.1 14.41 217.712 53.113zM194.027 53.113c-10.33-47.667-27.75-54.12-27.75-54.12s9.689 24.865.913 17.948c-13.59-10.71-56.797 22.853-56.797 22.853s57.246-25.384 83.634 13.319z" fill="#8a916f" fill-rule="evenodd" stroke="#000" stroke-width="3.781" stroke-linejoin="round"/></g><g transform="matrix(.0401 0 0 .0401 52.156 61.303)" filter="url(#i)"><title>Layer 1</title><path d="M317.664 264.433c-68.15 24.632 20.065 134.041-53.572 229.504-13.61 17.647 81.973 2.977 115.767-94.804 32.861-95.09 1.603-153.113-62.195-134.7z" stroke="#010101" stroke-width="4"/><path d="M317.664 264.433c-68.15 24.632 20.065 134.041-53.572 229.504-13.61 17.647 81.973 2.977 115.767-94.804 32.861-95.09 1.603-153.113-62.195-134.7z" stroke="#010101" stroke-width="4"/><path d="M339.988 261.032c-.584 0-1.179.03-1.77.044 22.965 18.6 32.684 61.646 20.938 121.513-15.615 79.583-75.895 113.915-95.93 115.728 6.506 9.292 86.37-11.57 116.647-99.176 28.755-83.203 8.387-138.038-39.885-138.109z" fill-opacity=".314"/><path d="M96.053 264.433c68.153 24.632-20.063 134.041 53.574 229.504 13.61 17.647-81.975 2.977-115.767-94.804-32.86-95.09-1.602-153.113 62.193-134.7z" stroke="#010101" stroke-width="4"/><path d="M22.853 306.861c-4.888 23.501-1.84 55.063 11.023 92.281 33.792 97.78 129.37 112.46 115.76 94.817-5.82-7.547-10.654-15.198-14.609-22.871-26.845-6.465-76.562-34.707-99.026-99.71-8.327-24.102-12.541-45.82-13.148-64.517zm100.975 9.031c-1.25 12.154-2.628 25.075-3.231 38.621 1.406-13.94 2.946-26.968 3.23-38.62z" fill-opacity=".314"/><path d="M156.877 464.844C88.763 471.89 10.64 527.289 41.692 539.37c31.051 12.08 121.175 17.12 138.204 3.025 8.75-7.243 24.406-25.382 26.25-42.402 1.848 17.019 17.458 35.16 26.207 42.402 17.028 14.095 107.197 9.056 138.249-3.025 31.051-12.082-47.072-67.48-115.185-74.527-35.074 3.397-47.69 15.243-49.27 28.832-1.58-13.59-14.197-25.435-49.27-28.832z" fill-rule="evenodd" stroke="#000" stroke-width="5"/><path d="M156.888 464.864c-33.432 3.459-69.244 18.566-93.405 34.483 36.593 17.01 81.336 27.492 129.837 28.698 6.215-8.219 11.783-18.296 12.838-28.031 1.047 9.644 6.484 19.632 12.616 27.809 47.705-2.03 91.52-13.022 127.182-30.345-24.076-15.222-58.395-29.29-90.528-32.614-35.074 3.398-47.69 15.243-49.27 28.832-1.58-13.59-14.196-25.434-49.27-28.832z" fill-opacity=".314" fill-rule="evenodd"/><path d="M362.027 365.002c.026 86.151-69.453 156.005-155.167 156.005S51.668 451.152 51.695 365.002c-.027-86.151 69.451-156.004 155.165-156.004 85.714-.002 155.191 69.853 155.167 156.004z" stroke="#010101" stroke-width="4" stroke-linecap="round" stroke-linejoin="round"/><path d="M352.648 311.497c.108 2.395.177 4.834.177 7.253 0 86.09-69.507 155.952-155.158 155.952-66.952 0-124.08-42.714-145.82-102.471 3.759 82.741 71.784 148.744 155.027 148.744 85.65 0 155.159-69.862 155.159-155.952 0-18.797-3.312-36.833-9.385-53.526z" fill-opacity=".314"/><path d="M246.256 178.71l-86.012 2.225s2.107 19.98-2.7 41.824a153.88 153.88 0 0 0-21.47 9.121c24.034 20.176 52.046 32.57 69.81 32.57 18.595 0 46.883-12.608 70.872-33.06-7.942-4.035-16.267-7.425-24.922-10.055-6.273-22.209-5.578-42.625-5.578-42.625z" opacity=".32" stroke="#010101" stroke-width="4" stroke-linecap="round" stroke-linejoin="round"/><path d="M276.445 257.443c-.247 15.476-31.87 24.205-71.183 24.205s-71.182-10.837-71.182-24.205c14.353-11.626 31.87-24.204 71.182-24.204 39.314 0 52.128 7.734 71.183 24.204z" stroke="#000" stroke-width="3"/><path d="M134.78 258.7c35.121-25.382 25.453-83.478 25.453-83.478l83.29-4.924s-2.15 61.268 33.689 87.089" stroke="#010101" stroke-width="4" stroke-linecap="round" stroke-linejoin="round"/><path d="M244.742 181.64l-81.306 2.12s.065.869.167 2.501c.052.767.076 1.333.125 2.502.01.186.035.313.042.509.021.552.026.985.042 1.61.006.182-.004.365 0 .552.021.958.041 1.95.042 3.053 0 .848-.026 1.703-.042 2.628-.006.283.007.517 0 .806a143.344 143.344 0 0 1-.21 4.96c-.01.163.01.303 0 .467.78 5.309.202 8.317-2.484 20.267-1.403 6.428-3.65 13.035-6.554 19.291 18.95 12.87 38.91 26.135 52.346 26.135 13.776 0 32.85-11.753 51.516-24.327-3.73-6.802-8.045-16.454-10.027-23.528-3.28-9.711-1.786-13.558-2.652-21.06a157.463 157.463 0 0 1-.586-6.106c-.142-1.874-.23-3.582-.293-5.088a139.77 139.77 0 0 1-.126-3.943c-.025-2.065 0-3.35 0-3.35z" opacity=".32" stroke="#010101" stroke-width="3.796" stroke-linecap="round" stroke-linejoin="round"/><path d="M275.207 26.699c-18.441-13.041-41.848-20.69-69.338-20.69-25.014 0-46.352 5.976-63.66 16.359-19.798 13.753-35.697 33.735-45.45 57.467-4.494 13.227-6.827 27.626-6.827 42.703 0 64.32 79.505 116.529 115.938 116.529 37.847 0 115.936-52.21 115.936-116.53 0-15.536-2.593-30.355-7.512-43.911-8.79-20.827-22.332-38.707-39.087-51.927z" stroke="#010101" stroke-width="4" stroke-linecap="round" stroke-linejoin="round"/><path d="M211.364 133.091c-15.8 0-32.977 16.64-32.288 27.145 9.487 37.207-30.663 54.29 34.35 54.29 65.014 0 17.664-33.548 29.542-55.167-.685-12.256-21.293-27.142-31.604-26.268z" opacity=".32" stroke="#010101" stroke-width="6.091"/><path d="M209.68 123.468c-23.567 0-49.188 24.604-48.16 40.138 14.151 55.018-45.737 80.278 51.236 80.278 96.972 0 26.347-49.607 44.064-81.574-1.022-18.124-31.76-40.135-47.14-38.842z" stroke="#010101" stroke-width="4"/><path d="M175.721 47.554c-22.31 0-40.427 21.056-40.427 46.999s18.118 46.997 40.427 46.997c13.11 0 24.742-7.279 32.127-18.541 7.384 11.27 19.042 18.54 32.159 18.54 22.306 0 40.426-21.055 40.426-46.996 0-25.945-18.12-46.999-40.426-46.999-13.115 0-24.775 7.273-32.16 18.543-7.384-11.26-19.02-18.543-32.126-18.543z" stroke="#010101" stroke-width="5" stroke-linecap="round"/><path d="M205.294 97.733c0 6.497-5.24 11.762-11.703 11.762-6.464 0-11.703-5.266-11.703-11.762s5.24-11.763 11.703-11.763c6.463 0 11.703 5.267 11.703 11.763z" stroke="#010101" stroke-width="3.169" stroke-linecap="round"/><path d="M192.401 93.613a3.041 3.041 0 0 1-3.034 3.051 3.043 3.043 0 0 1-3.036-3.05 3.044 3.044 0 0 1 3.036-3.054 3.044 3.044 0 0 1 3.034 3.053z"/><g><path d="M234.934 97.733c0 6.497-5.24 11.762-11.703 11.762-6.463 0-11.703-5.266-11.703-11.762s5.24-11.763 11.703-11.763c6.463 0 11.703 5.267 11.703 11.763z" stroke="#010101" stroke-width="3.169" stroke-linecap="round"/><path d="M222.042 93.613a3.043 3.043 0 0 1-3.036 3.051 3.043 3.043 0 0 1-3.036-3.05 3.044 3.044 0 0 1 3.036-3.054 3.047 3.047 0 0 1 3.036 3.053z"/></g><path d="M217.712 53.113c10.33-47.667 27.75-54.12 27.75-54.12s-9.69 24.865-.913 17.948c13.59-10.71 56.797 22.853 56.797 22.853S244.1 14.41 217.712 53.113zM194.027 53.113c-10.33-47.667-27.75-54.12-27.75-54.12s9.689 24.865.913 17.948c-13.59-10.71-56.797 22.853-56.797 22.853s57.246-25.384 83.634 13.319z" fill-rule="evenodd" stroke="#000" stroke-width="3.781" stroke-linejoin="round"/></g><g transform="matrix(.0401 0 0 .0401 52.156 61.29)"><title>Layer 1</title><path d="M317.664 264.433c-68.15 24.632 20.065 134.041-53.572 229.504-13.61 17.647 81.973 2.977 115.767-94.804 32.861-95.09 1.603-153.113-62.195-134.7z" fill="#fff" stroke="#010101" stroke-width="4"/><path d="M317.664 264.433c-68.15 24.632 20.065 134.041-53.572 229.504-13.61 17.647 81.973 2.977 115.767-94.804 32.861-95.09 1.603-153.113-62.195-134.7z" fill="#fff6d5" stroke="#010101" stroke-width="4"/><path d="M339.988 261.032c-.584 0-1.179.03-1.77.044 22.965 18.6 32.684 61.646 20.938 121.513-15.615 79.583-75.895 113.915-95.93 115.728 6.506 9.292 86.37-11.57 116.647-99.176 28.755-83.203 8.387-138.038-39.885-138.109z" fill="#010101" fill-opacity=".314"/><path d="M96.053 264.433c68.153 24.632-20.063 134.041 53.574 229.504 13.61 17.647-81.975 2.977-115.767-94.804-32.86-95.09-1.602-153.113 62.193-134.7z" fill="#fff6d5" stroke="#010101" stroke-width="4"/><path d="M22.853 306.861c-4.888 23.501-1.84 55.063 11.023 92.281 33.792 97.78 129.37 112.46 115.76 94.817-5.82-7.547-10.654-15.198-14.609-22.871-26.845-6.465-76.562-34.707-99.026-99.71-8.327-24.102-12.541-45.82-13.148-64.517zm100.975 9.031c-1.25 12.154-2.628 25.075-3.231 38.621 1.406-13.94 2.946-26.968 3.23-38.62z" fill="#010101" fill-opacity=".314"/><path d="M156.877 464.844C88.763 471.89 10.64 527.289 41.692 539.37c31.051 12.08 121.175 17.12 138.204 3.025 8.75-7.243 24.406-25.382 26.25-42.402 1.848 17.019 17.458 35.16 26.207 42.402 17.028 14.095 107.197 9.056 138.249-3.025 31.051-12.082-47.072-67.48-115.185-74.527-35.074 3.397-47.69 15.243-49.27 28.832-1.58-13.59-14.197-25.435-49.27-28.832z" fill="url(#l)" fill-rule="evenodd" stroke="#000" stroke-width="5"/><path d="M156.888 464.864c-33.432 3.459-69.244 18.566-93.405 34.483 36.593 17.01 81.336 27.492 129.837 28.698 6.215-8.219 11.783-18.296 12.838-28.031 1.047 9.644 6.484 19.632 12.616 27.809 47.705-2.03 91.52-13.022 127.182-30.345-24.076-15.222-58.395-29.29-90.528-32.614-35.074 3.398-47.69 15.243-49.27 28.832-1.58-13.59-14.196-25.434-49.27-28.832z" fill-opacity=".314" fill-rule="evenodd"/><path d="M362.027 365.002c.026 86.151-69.453 156.005-155.167 156.005S51.668 451.152 51.695 365.002c-.027-86.151 69.451-156.004 155.165-156.004 85.714-.002 155.191 69.853 155.167 156.004z" fill="#fff6d5" stroke="#010101" stroke-width="4" stroke-linecap="round" stroke-linejoin="round"/><path d="M352.648 311.497c.108 2.395.177 4.834.177 7.253 0 86.09-69.507 155.952-155.158 155.952-66.952 0-124.08-42.714-145.82-102.471 3.759 82.741 71.784 148.744 155.027 148.744 85.65 0 155.159-69.862 155.159-155.952 0-18.797-3.312-36.833-9.385-53.526z" fill="#010101" fill-opacity=".314"/><path d="M246.256 178.71l-86.012 2.225s2.107 19.98-2.7 41.824a153.88 153.88 0 0 0-21.47 9.121c24.034 20.176 52.046 32.57 69.81 32.57 18.595 0 46.883-12.608 70.872-33.06-7.942-4.035-16.267-7.425-24.922-10.055-6.273-22.209-5.578-42.625-5.578-42.625z" opacity=".32" fill="#010101" stroke="#010101" stroke-width="4" stroke-linecap="round" stroke-linejoin="round"/><path d="M276.445 257.443c-.247 15.476-31.87 24.205-71.183 24.205s-71.182-10.837-71.182-24.205c14.353-11.626 31.87-24.204 71.182-24.204 39.314 0 52.128 7.734 71.183 24.204z" fill="#fff6d5" stroke="#000" stroke-width="3"/><path d="M134.78 258.7c35.121-25.382 25.453-83.478 25.453-83.478l83.29-4.924s-2.15 61.268 33.689 87.089" fill="#fff6d5" stroke="#010101" stroke-width="4" stroke-linecap="round" stroke-linejoin="round"/><path d="M244.742 181.64l-81.306 2.12s.065.869.167 2.501c.052.767.076 1.333.125 2.502.01.186.035.313.042.509.021.552.026.985.042 1.61.006.182-.004.365 0 .552.021.958.041 1.95.042 3.053 0 .848-.026 1.703-.042 2.628-.006.283.007.517 0 .806a143.344 143.344 0 0 1-.21 4.96c-.01.163.01.303 0 .467.78 5.309.202 8.317-2.484 20.267-1.403 6.428-3.65 13.035-6.554 19.291 18.95 12.87 38.91 26.135 52.346 26.135 13.776 0 32.85-11.753 51.516-24.327-3.73-6.802-8.045-16.454-10.027-23.528-3.28-9.711-1.786-13.558-2.652-21.06a157.463 157.463 0 0 1-.586-6.106c-.142-1.874-.23-3.582-.293-5.088a139.77 139.77 0 0 1-.126-3.943c-.025-2.065 0-3.35 0-3.35z" opacity=".32" fill="#010101" stroke="#010101" stroke-width="3.796" stroke-linecap="round" stroke-linejoin="round"/><path d="M275.207 26.699c-18.441-13.041-41.848-20.69-69.338-20.69-25.014 0-46.352 5.976-63.66 16.359-19.798 13.753-35.697 33.735-45.45 57.467-4.494 13.227-6.827 27.626-6.827 42.703 0 64.32 79.505 116.529 115.938 116.529 37.847 0 115.936-52.21 115.936-116.53 0-15.536-2.593-30.355-7.512-43.911-8.79-20.827-22.332-38.707-39.087-51.927z" fill="#fff6d5" stroke="#010101" stroke-width="4" stroke-linecap="round" stroke-linejoin="round"/><path d="M211.364 133.091c-15.8 0-32.977 16.64-32.288 27.145 9.487 37.207-30.663 54.29 34.35 54.29 65.014 0 17.664-33.548 29.542-55.167-.685-12.256-21.293-27.142-31.604-26.268z" opacity=".32" fill="#010101" stroke="#010101" stroke-width="6.091"/><path d="M209.68 123.468c-23.567 0-49.188 24.604-48.16 40.138 14.151 55.018-45.737 80.278 51.236 80.278 96.972 0 26.347-49.607 44.064-81.574-1.022-18.124-31.76-40.135-47.14-38.842z" fill="url(#m)" stroke="#010101" stroke-width="4"/><path d="M175.721 47.554c-22.31 0-40.427 21.056-40.427 46.999s18.118 46.997 40.427 46.997c13.11 0 24.742-7.279 32.127-18.541 7.384 11.27 19.042 18.54 32.159 18.54 22.306 0 40.426-21.055 40.426-46.996 0-25.945-18.12-46.999-40.426-46.999-13.115 0-24.775 7.273-32.16 18.543-7.384-11.26-19.02-18.543-32.126-18.543z" fill="#fff" stroke="#010101" stroke-width="5" stroke-linecap="round"/><path d="M205.294 97.733c0 6.497-5.24 11.762-11.703 11.762-6.464 0-11.703-5.266-11.703-11.762s5.24-11.763 11.703-11.763c6.463 0 11.703 5.267 11.703 11.763z" fill="#010101" stroke="#010101" stroke-width="3.169" stroke-linecap="round"/><path d="M192.401 93.613a3.041 3.041 0 0 1-3.034 3.051 3.043 3.043 0 0 1-3.036-3.05 3.044 3.044 0 0 1 3.036-3.054 3.044 3.044 0 0 1 3.034 3.053z" fill="#fff"/><g><path d="M234.934 97.733c0 6.497-5.24 11.762-11.703 11.762-6.463 0-11.703-5.266-11.703-11.762s5.24-11.763 11.703-11.763c6.463 0 11.703 5.267 11.703 11.763z" fill="#010101" stroke="#010101" stroke-width="3.169" stroke-linecap="round"/><path d="M222.042 93.613a3.043 3.043 0 0 1-3.036 3.051 3.043 3.043 0 0 1-3.036-3.05 3.044 3.044 0 0 1 3.036-3.054 3.047 3.047 0 0 1 3.036 3.053z" fill="#fff"/></g><path d="M217.712 53.113c10.33-47.667 27.75-54.12 27.75-54.12s-9.69 24.865-.913 17.948c13.59-10.71 56.797 22.853 56.797 22.853S244.1 14.41 217.712 53.113zM194.027 53.113c-10.33-47.667-27.75-54.12-27.75-54.12s9.689 24.865.913 17.948c-13.59-10.71-56.797 22.853-56.797 22.853s57.246-25.384 83.634 13.319z" fill="#8a916f" fill-rule="evenodd" stroke="#000" stroke-width="3.781" stroke-linejoin="round"/></g><g transform="matrix(.0401 0 0 .0401 52.156 61.303)" filter="url(#i)"><title>Layer 1</title><path d="M317.664 264.433c-68.15 24.632 20.065 134.041-53.572 229.504-13.61 17.647 81.973 2.977 115.767-94.804 32.861-95.09 1.603-153.113-62.195-134.7z" stroke="#010101" stroke-width="4"/><path d="M317.664 264.433c-68.15 24.632 20.065 134.041-53.572 229.504-13.61 17.647 81.973 2.977 115.767-94.804 32.861-95.09 1.603-153.113-62.195-134.7z" stroke="#010101" stroke-width="4"/><path d="M339.988 261.032c-.584 0-1.179.03-1.77.044 22.965 18.6 32.684 61.646 20.938 121.513-15.615 79.583-75.895 113.915-95.93 115.728 6.506 9.292 86.37-11.57 116.647-99.176 28.755-83.203 8.387-138.038-39.885-138.109z" fill-opacity=".314"/><path d="M96.053 264.433c68.153 24.632-20.063 134.041 53.574 229.504 13.61 17.647-81.975 2.977-115.767-94.804-32.86-95.09-1.602-153.113 62.193-134.7z" stroke="#010101" stroke-width="4"/><path d="M22.853 306.861c-4.888 23.501-1.84 55.063 11.023 92.281 33.792 97.78 129.37 112.46 115.76 94.817-5.82-7.547-10.654-15.198-14.609-22.871-26.845-6.465-76.562-34.707-99.026-99.71-8.327-24.102-12.541-45.82-13.148-64.517zm100.975 9.031c-1.25 12.154-2.628 25.075-3.231 38.621 1.406-13.94 2.946-26.968 3.23-38.62z" fill-opacity=".314"/><path d="M156.877 464.844C88.763 471.89 10.64 527.289 41.692 539.37c31.051 12.08 121.175 17.12 138.204 3.025 8.75-7.243 24.406-25.382 26.25-42.402 1.848 17.019 17.458 35.16 26.207 42.402 17.028 14.095 107.197 9.056 138.249-3.025 31.051-12.082-47.072-67.48-115.185-74.527-35.074 3.397-47.69 15.243-49.27 28.832-1.58-13.59-14.197-25.435-49.27-28.832z" fill-rule="evenodd" stroke="#000" stroke-width="5"/><path d="M156.888 464.864c-33.432 3.459-69.244 18.566-93.405 34.483 36.593 17.01 81.336 27.492 129.837 28.698 6.215-8.219 11.783-18.296 12.838-28.031 1.047 9.644 6.484 19.632 12.616 27.809 47.705-2.03 91.52-13.022 127.182-30.345-24.076-15.222-58.395-29.29-90.528-32.614-35.074 3.398-47.69 15.243-49.27 28.832-1.58-13.59-14.196-25.434-49.27-28.832z" fill-opacity=".314" fill-rule="evenodd"/><path d="M362.027 365.002c.026 86.151-69.453 156.005-155.167 156.005S51.668 451.152 51.695 365.002c-.027-86.151 69.451-156.004 155.165-156.004 85.714-.002 155.191 69.853 155.167 156.004z" stroke="#010101" stroke-width="4" stroke-linecap="round" stroke-linejoin="round"/><path d="M352.648 311.497c.108 2.395.177 4.834.177 7.253 0 86.09-69.507 155.952-155.158 155.952-66.952 0-124.08-42.714-145.82-102.471 3.759 82.741 71.784 148.744 155.027 148.744 85.65 0 155.159-69.862 155.159-155.952 0-18.797-3.312-36.833-9.385-53.526z" fill-opacity=".314"/><path d="M246.256 178.71l-86.012 2.225s2.107 19.98-2.7 41.824a153.88 153.88 0 0 0-21.47 9.121c24.034 20.176 52.046 32.57 69.81 32.57 18.595 0 46.883-12.608 70.872-33.06-7.942-4.035-16.267-7.425-24.922-10.055-6.273-22.209-5.578-42.625-5.578-42.625z" opacity=".32" stroke="#010101" stroke-width="4" stroke-linecap="round" stroke-linejoin="round"/><path d="M276.445 257.443c-.247 15.476-31.87 24.205-71.183 24.205s-71.182-10.837-71.182-24.205c14.353-11.626 31.87-24.204 71.182-24.204 39.314 0 52.128 7.734 71.183 24.204z" stroke="#000" stroke-width="3"/><path d="M134.78 258.7c35.121-25.382 25.453-83.478 25.453-83.478l83.29-4.924s-2.15 61.268 33.689 87.089" stroke="#010101" stroke-width="4" stroke-linecap="round" stroke-linejoin="round"/><path d="M244.742 181.64l-81.306 2.12s.065.869.167 2.501c.052.767.076 1.333.125 2.502.01.186.035.313.042.509.021.552.026.985.042 1.61.006.182-.004.365 0 .552.021.958.041 1.95.042 3.053 0 .848-.026 1.703-.042 2.628-.006.283.007.517 0 .806a143.344 143.344 0 0 1-.21 4.96c-.01.163.01.303 0 .467.78 5.309.202 8.317-2.484 20.267-1.403 6.428-3.65 13.035-6.554 19.291 18.95 12.87 38.91 26.135 52.346 26.135 13.776 0 32.85-11.753 51.516-24.327-3.73-6.802-8.045-16.454-10.027-23.528-3.28-9.711-1.786-13.558-2.652-21.06a157.463 157.463 0 0 1-.586-6.106c-.142-1.874-.23-3.582-.293-5.088a139.77 139.77 0 0 1-.126-3.943c-.025-2.065 0-3.35 0-3.35z" opacity=".32" stroke="#010101" stroke-width="3.796" stroke-linecap="round" stroke-linejoin="round"/><path d="M275.207 26.699c-18.441-13.041-41.848-20.69-69.338-20.69-25.014 0-46.352 5.976-63.66 16.359-19.798 13.753-35.697 33.735-45.45 57.467-4.494 13.227-6.827 27.626-6.827 42.703 0 64.32 79.505 116.529 115.938 116.529 37.847 0 115.936-52.21 115.936-116.53 0-15.536-2.593-30.355-7.512-43.911-8.79-20.827-22.332-38.707-39.087-51.927z" stroke="#010101" stroke-width="4" stroke-linecap="round" stroke-linejoin="round"/><path d="M211.364 133.091c-15.8 0-32.977 16.64-32.288 27.145 9.487 37.207-30.663 54.29 34.35 54.29 65.014 0 17.664-33.548 29.542-55.167-.685-12.256-21.293-27.142-31.604-26.268z" opacity=".32" stroke="#010101" stroke-width="6.091"/><path d="M209.68 123.468c-23.567 0-49.188 24.604-48.16 40.138 14.151 55.018-45.737 80.278 51.236 80.278 96.972 0 26.347-49.607 44.064-81.574-1.022-18.124-31.76-40.135-47.14-38.842z" stroke="#010101" stroke-width="4"/><path d="M175.721 47.554c-22.31 0-40.427 21.056-40.427 46.999s18.118 46.997 40.427 46.997c13.11 0 24.742-7.279 32.127-18.541 7.384 11.27 19.042 18.54 32.159 18.54 22.306 0 40.426-21.055 40.426-46.996 0-25.945-18.12-46.999-40.426-46.999-13.115 0-24.775 7.273-32.16 18.543-7.384-11.26-19.02-18.543-32.126-18.543z" stroke="#010101" stroke-width="5" stroke-linecap="round"/><path d="M205.294 97.733c0 6.497-5.24 11.762-11.703 11.762-6.464 0-11.703-5.266-11.703-11.762s5.24-11.763 11.703-11.763c6.463 0 11.703 5.267 11.703 11.763z" stroke="#010101" stroke-width="3.169" stroke-linecap="round"/><path d="M192.401 93.613a3.041 3.041 0 0 1-3.034 3.051 3.043 3.043 0 0 1-3.036-3.05 3.044 3.044 0 0 1 3.036-3.054 3.044 3.044 0 0 1 3.034 3.053z"/><g><path d="M234.934 97.733c0 6.497-5.24 11.762-11.703 11.762-6.463 0-11.703-5.266-11.703-11.762s5.24-11.763 11.703-11.763c6.463 0 11.703 5.267 11.703 11.763z" stroke="#010101" stroke-width="3.169" stroke-linecap="round"/><path d="M222.042 93.613a3.043 3.043 0 0 1-3.036 3.051 3.043 3.043 0 0 1-3.036-3.05 3.044 3.044 0 0 1 3.036-3.054 3.047 3.047 0 0 1 3.036 3.053z"/></g><path d="M217.712 53.113c10.33-47.667 27.75-54.12 27.75-54.12s-9.69 24.865-.913 17.948c13.59-10.71 56.797 22.853 56.797 22.853S244.1 14.41 217.712 53.113zM194.027 53.113c-10.33-47.667-27.75-54.12-27.75-54.12s9.689 24.865.913 17.948c-13.59-10.71-56.797 22.853-56.797 22.853s57.246-25.384 83.634 13.319z" fill-rule="evenodd" stroke="#000" stroke-width="3.781" stroke-linejoin="round"/></g><g transform="matrix(.0401 0 0 .0401 52.156 61.29)"><title>Layer 1</title><path d="M317.664 264.433c-68.15 24.632 20.065 134.041-53.572 229.504-13.61 17.647 81.973 2.977 115.767-94.804 32.861-95.09 1.603-153.113-62.195-134.7z" fill="#fff" stroke="#010101" stroke-width="4"/><path d="M317.664 264.433c-68.15 24.632 20.065 134.041-53.572 229.504-13.61 17.647 81.973 2.977 115.767-94.804 32.861-95.09 1.603-153.113-62.195-134.7z" fill="#fff6d5" stroke="#010101" stroke-width="4"/><path d="M339.988 261.032c-.584 0-1.179.03-1.77.044 22.965 18.6 32.684 61.646 20.938 121.513-15.615 79.583-75.895 113.915-95.93 115.728 6.506 9.292 86.37-11.57 116.647-99.176 28.755-83.203 8.387-138.038-39.885-138.109z" fill="#010101" fill-opacity=".314"/><path d="M96.053 264.433c68.153 24.632-20.063 134.041 53.574 229.504 13.61 17.647-81.975 2.977-115.767-94.804-32.86-95.09-1.602-153.113 62.193-134.7z" fill="#fff6d5" stroke="#010101" stroke-width="4"/><path d="M22.853 306.861c-4.888 23.501-1.84 55.063 11.023 92.281 33.792 97.78 129.37 112.46 115.76 94.817-5.82-7.547-10.654-15.198-14.609-22.871-26.845-6.465-76.562-34.707-99.026-99.71-8.327-24.102-12.541-45.82-13.148-64.517zm100.975 9.031c-1.25 12.154-2.628 25.075-3.231 38.621 1.406-13.94 2.946-26.968 3.23-38.62z" fill="#010101" fill-opacity=".314"/><path d="M156.877 464.844C88.763 471.89 10.64 527.289 41.692 539.37c31.051 12.08 121.175 17.12 138.204 3.025 8.75-7.243 24.406-25.382 26.25-42.402 1.848 17.019 17.458 35.16 26.207 42.402 17.028 14.095 107.197 9.056 138.249-3.025 31.051-12.082-47.072-67.48-115.185-74.527-35.074 3.397-47.69 15.243-49.27 28.832-1.58-13.59-14.197-25.435-49.27-28.832z" fill="url(#n)" fill-rule="evenodd" stroke="#000" stroke-width="5"/><path d="M156.888 464.864c-33.432 3.459-69.244 18.566-93.405 34.483 36.593 17.01 81.336 27.492 129.837 28.698 6.215-8.219 11.783-18.296 12.838-28.031 1.047 9.644 6.484 19.632 12.616 27.809 47.705-2.03 91.52-13.022 127.182-30.345-24.076-15.222-58.395-29.29-90.528-32.614-35.074 3.398-47.69 15.243-49.27 28.832-1.58-13.59-14.196-25.434-49.27-28.832z" fill-opacity=".314" fill-rule="evenodd"/><path d="M362.027 365.002c.026 86.151-69.453 156.005-155.167 156.005S51.668 451.152 51.695 365.002c-.027-86.151 69.451-156.004 155.165-156.004 85.714-.002 155.191 69.853 155.167 156.004z" fill="#fff6d5" stroke="#010101" stroke-width="4" stroke-linecap="round" stroke-linejoin="round"/><path d="M352.648 311.497c.108 2.395.177 4.834.177 7.253 0 86.09-69.507 155.952-155.158 155.952-66.952 0-124.08-42.714-145.82-102.471 3.759 82.741 71.784 148.744 155.027 148.744 85.65 0 155.159-69.862 155.159-155.952 0-18.797-3.312-36.833-9.385-53.526z" fill="#010101" fill-opacity=".314"/><path d="M246.256 178.71l-86.012 2.225s2.107 19.98-2.7 41.824a153.88 153.88 0 0 0-21.47 9.121c24.034 20.176 52.046 32.57 69.81 32.57 18.595 0 46.883-12.608 70.872-33.06-7.942-4.035-16.267-7.425-24.922-10.055-6.273-22.209-5.578-42.625-5.578-42.625z" opacity=".32" fill="#010101" stroke="#010101" stroke-width="4" stroke-linecap="round" stroke-linejoin="round"/><path d="M276.445 257.443c-.247 15.476-31.87 24.205-71.183 24.205s-71.182-10.837-71.182-24.205c14.353-11.626 31.87-24.204 71.182-24.204 39.314 0 52.128 7.734 71.183 24.204z" fill="#fff6d5" stroke="#000" stroke-width="3"/><path d="M134.78 258.7c35.121-25.382 25.453-83.478 25.453-83.478l83.29-4.924s-2.15 61.268 33.689 87.089" fill="#fff6d5" stroke="#010101" stroke-width="4" stroke-linecap="round" stroke-linejoin="round"/><path d="M244.742 181.64l-81.306 2.12s.065.869.167 2.501c.052.767.076 1.333.125 2.502.01.186.035.313.042.509.021.552.026.985.042 1.61.006.182-.004.365 0 .552.021.958.041 1.95.042 3.053 0 .848-.026 1.703-.042 2.628-.006.283.007.517 0 .806a143.344 143.344 0 0 1-.21 4.96c-.01.163.01.303 0 .467.78 5.309.202 8.317-2.484 20.267-1.403 6.428-3.65 13.035-6.554 19.291 18.95 12.87 38.91 26.135 52.346 26.135 13.776 0 32.85-11.753 51.516-24.327-3.73-6.802-8.045-16.454-10.027-23.528-3.28-9.711-1.786-13.558-2.652-21.06a157.463 157.463 0 0 1-.586-6.106c-.142-1.874-.23-3.582-.293-5.088a139.77 139.77 0 0 1-.126-3.943c-.025-2.065 0-3.35 0-3.35z" opacity=".32" fill="#010101" stroke="#010101" stroke-width="3.796" stroke-linecap="round" stroke-linejoin="round"/><path d="M275.207 26.699c-18.441-13.041-41.848-20.69-69.338-20.69-25.014 0-46.352 5.976-63.66 16.359-19.798 13.753-35.697 33.735-45.45 57.467-4.494 13.227-6.827 27.626-6.827 42.703 0 64.32 79.505 116.529 115.938 116.529 37.847 0 115.936-52.21 115.936-116.53 0-15.536-2.593-30.355-7.512-43.911-8.79-20.827-22.332-38.707-39.087-51.927z" fill="#fff6d5" stroke="#010101" stroke-width="4" stroke-linecap="round" stroke-linejoin="round"/><path d="M211.364 133.091c-15.8 0-32.977 16.64-32.288 27.145 9.487 37.207-30.663 54.29 34.35 54.29 65.014 0 17.664-33.548 29.542-55.167-.685-12.256-21.293-27.142-31.604-26.268z" opacity=".32" fill="#010101" stroke="#010101" stroke-width="6.091"/><path d="M209.68 123.468c-23.567 0-49.188 24.604-48.16 40.138 14.151 55.018-45.737 80.278 51.236 80.278 96.972 0 26.347-49.607 44.064-81.574-1.022-18.124-31.76-40.135-47.14-38.842z" fill="url(#o)" stroke="#010101" stroke-width="4"/><path d="M175.721 47.554c-22.31 0-40.427 21.056-40.427 46.999s18.118 46.997 40.427 46.997c13.11 0 24.742-7.279 32.127-18.541 7.384 11.27 19.042 18.54 32.159 18.54 22.306 0 40.426-21.055 40.426-46.996 0-25.945-18.12-46.999-40.426-46.999-13.115 0-24.775 7.273-32.16 18.543-7.384-11.26-19.02-18.543-32.126-18.543z" fill="#fff" stroke="#010101" stroke-width="5" stroke-linecap="round"/><path d="M205.294 97.733c0 6.497-5.24 11.762-11.703 11.762-6.464 0-11.703-5.266-11.703-11.762s5.24-11.763 11.703-11.763c6.463 0 11.703 5.267 11.703 11.763z" fill="#010101" stroke="#010101" stroke-width="3.169" stroke-linecap="round"/><path d="M192.401 93.613a3.041 3.041 0 0 1-3.034 3.051 3.043 3.043 0 0 1-3.036-3.05 3.044 3.044 0 0 1 3.036-3.054 3.044 3.044 0 0 1 3.034 3.053z" fill="#fff"/><g><path d="M234.934 97.733c0 6.497-5.24 11.762-11.703 11.762-6.463 0-11.703-5.266-11.703-11.762s5.24-11.763 11.703-11.763c6.463 0 11.703 5.267 11.703 11.763z" fill="#010101" stroke="#010101" stroke-width="3.169" stroke-linecap="round"/><path d="M222.042 93.613a3.043 3.043 0 0 1-3.036 3.051 3.043 3.043 0 0 1-3.036-3.05 3.044 3.044 0 0 1 3.036-3.054 3.047 3.047 0 0 1 3.036 3.053z" fill="#fff"/></g><path d="M217.712 53.113c10.33-47.667 27.75-54.12 27.75-54.12s-9.69 24.865-.913 17.948c13.59-10.71 56.797 22.853 56.797 22.853S244.1 14.41 217.712 53.113zM194.027 53.113c-10.33-47.667-27.75-54.12-27.75-54.12s9.689 24.865.913 17.948c-13.59-10.71-56.797 22.853-56.797 22.853s57.246-25.384 83.634 13.319z" fill="#8a916f" fill-rule="evenodd" stroke="#000" stroke-width="3.781" stroke-linejoin="round"/></g><g><g transform="matrix(.0401 0 0 .0401 81.401 61.936)" filter="url(#i)"><title>Layer 1</title><path d="M317.664 264.433c-68.15 24.632 20.065 134.041-53.572 229.504-13.61 17.647 81.973 2.977 115.767-94.804 32.861-95.09 1.603-153.113-62.195-134.7z" stroke="#010101" stroke-width="4"/><path d="M317.664 264.433c-68.15 24.632 20.065 134.041-53.572 229.504-13.61 17.647 81.973 2.977 115.767-94.804 32.861-95.09 1.603-153.113-62.195-134.7z" stroke="#010101" stroke-width="4"/><path d="M339.988 261.032c-.584 0-1.179.03-1.77.044 22.965 18.6 32.684 61.646 20.938 121.513-15.615 79.583-75.895 113.915-95.93 115.728 6.506 9.292 86.37-11.57 116.647-99.176 28.755-83.203 8.387-138.038-39.885-138.109z" fill-opacity=".314"/><path d="M96.053 264.433c68.153 24.632-20.063 134.041 53.574 229.504 13.61 17.647-81.975 2.977-115.767-94.804-32.86-95.09-1.602-153.113 62.193-134.7z" stroke="#010101" stroke-width="4"/><path d="M22.853 306.861c-4.888 23.501-1.84 55.063 11.023 92.281 33.792 97.78 129.37 112.46 115.76 94.817-5.82-7.547-10.654-15.198-14.609-22.871-26.845-6.465-76.562-34.707-99.026-99.71-8.327-24.102-12.541-45.82-13.148-64.517zm100.975 9.031c-1.25 12.154-2.628 25.075-3.231 38.621 1.406-13.94 2.946-26.968 3.23-38.62z" fill-opacity=".314"/><path d="M156.877 464.844C88.763 471.89 10.64 527.289 41.692 539.37c31.051 12.08 121.175 17.12 138.204 3.025 8.75-7.243 24.406-25.382 26.25-42.402 1.848 17.019 17.458 35.16 26.207 42.402 17.028 14.095 107.197 9.056 138.249-3.025 31.051-12.082-47.072-67.48-115.185-74.527-35.074 3.397-47.69 15.243-49.27 28.832-1.58-13.59-14.197-25.435-49.27-28.832z" fill-rule="evenodd" stroke="#000" stroke-width="5"/><path d="M156.888 464.864c-33.432 3.459-69.244 18.566-93.405 34.483 36.593 17.01 81.336 27.492 129.837 28.698 6.215-8.219 11.783-18.296 12.838-28.031 1.047 9.644 6.484 19.632 12.616 27.809 47.705-2.03 91.52-13.022 127.182-30.345-24.076-15.222-58.395-29.29-90.528-32.614-35.074 3.398-47.69 15.243-49.27 28.832-1.58-13.59-14.196-25.434-49.27-28.832z" fill-opacity=".314" fill-rule="evenodd"/><path d="M362.027 365.002c.026 86.151-69.453 156.005-155.167 156.005S51.668 451.152 51.695 365.002c-.027-86.151 69.451-156.004 155.165-156.004 85.714-.002 155.191 69.853 155.167 156.004z" stroke="#010101" stroke-width="4" stroke-linecap="round" stroke-linejoin="round"/><path d="M352.648 311.497c.108 2.395.177 4.834.177 7.253 0 86.09-69.507 155.952-155.158 155.952-66.952 0-124.08-42.714-145.82-102.471 3.759 82.741 71.784 148.744 155.027 148.744 85.65 0 155.159-69.862 155.159-155.952 0-18.797-3.312-36.833-9.385-53.526z" fill-opacity=".314"/><path d="M246.256 178.71l-86.012 2.225s2.107 19.98-2.7 41.824a153.88 153.88 0 0 0-21.47 9.121c24.034 20.176 52.046 32.57 69.81 32.57 18.595 0 46.883-12.608 70.872-33.06-7.942-4.035-16.267-7.425-24.922-10.055-6.273-22.209-5.578-42.625-5.578-42.625z" opacity=".32" stroke="#010101" stroke-width="4" stroke-linecap="round" stroke-linejoin="round"/><path d="M276.445 257.443c-.247 15.476-31.87 24.205-71.183 24.205s-71.182-10.837-71.182-24.205c14.353-11.626 31.87-24.204 71.182-24.204 39.314 0 52.128 7.734 71.183 24.204z" stroke="#000" stroke-width="3"/><path d="M134.78 258.7c35.121-25.382 25.453-83.478 25.453-83.478l83.29-4.924s-2.15 61.268 33.689 87.089" stroke="#010101" stroke-width="4" stroke-linecap="round" stroke-linejoin="round"/><path d="M244.742 181.64l-81.306 2.12s.065.869.167 2.501c.052.767.076 1.333.125 2.502.01.186.035.313.042.509.021.552.026.985.042 1.61.006.182-.004.365 0 .552.021.958.041 1.95.042 3.053 0 .848-.026 1.703-.042 2.628-.006.283.007.517 0 .806a143.344 143.344 0 0 1-.21 4.96c-.01.163.01.303 0 .467.78 5.309.202 8.317-2.484 20.267-1.403 6.428-3.65 13.035-6.554 19.291 18.95 12.87 38.91 26.135 52.346 26.135 13.776 0 32.85-11.753 51.516-24.327-3.73-6.802-8.045-16.454-10.027-23.528-3.28-9.711-1.786-13.558-2.652-21.06a157.463 157.463 0 0 1-.586-6.106c-.142-1.874-.23-3.582-.293-5.088a139.77 139.77 0 0 1-.126-3.943c-.025-2.065 0-3.35 0-3.35z" opacity=".32" stroke="#010101" stroke-width="3.796" stroke-linecap="round" stroke-linejoin="round"/><path d="M275.207 26.699c-18.441-13.041-41.848-20.69-69.338-20.69-25.014 0-46.352 5.976-63.66 16.359-19.798 13.753-35.697 33.735-45.45 57.467-4.494 13.227-6.827 27.626-6.827 42.703 0 64.32 79.505 116.529 115.938 116.529 37.847 0 115.936-52.21 115.936-116.53 0-15.536-2.593-30.355-7.512-43.911-8.79-20.827-22.332-38.707-39.087-51.927z" stroke="#010101" stroke-width="4" stroke-linecap="round" stroke-linejoin="round"/><path d="M211.364 133.091c-15.8 0-32.977 16.64-32.288 27.145 9.487 37.207-30.663 54.29 34.35 54.29 65.014 0 17.664-33.548 29.542-55.167-.685-12.256-21.293-27.142-31.604-26.268z" opacity=".32" stroke="#010101" stroke-width="6.091"/><path d="M209.68 123.468c-23.567 0-49.188 24.604-48.16 40.138 14.151 55.018-45.737 80.278 51.236 80.278 96.972 0 26.347-49.607 44.064-81.574-1.022-18.124-31.76-40.135-47.14-38.842z" stroke="#010101" stroke-width="4"/><path d="M175.721 47.554c-22.31 0-40.427 21.056-40.427 46.999s18.118 46.997 40.427 46.997c13.11 0 24.742-7.279 32.127-18.541 7.384 11.27 19.042 18.54 32.159 18.54 22.306 0 40.426-21.055 40.426-46.996 0-25.945-18.12-46.999-40.426-46.999-13.115 0-24.775 7.273-32.16 18.543-7.384-11.26-19.02-18.543-32.126-18.543z" stroke="#010101" stroke-width="5" stroke-linecap="round"/><path d="M205.294 97.733c0 6.497-5.24 11.762-11.703 11.762-6.464 0-11.703-5.266-11.703-11.762s5.24-11.763 11.703-11.763c6.463 0 11.703 5.267 11.703 11.763z" stroke="#010101" stroke-width="3.169" stroke-linecap="round"/><path d="M192.401 93.613a3.041 3.041 0 0 1-3.034 3.051 3.043 3.043 0 0 1-3.036-3.05 3.044 3.044 0 0 1 3.036-3.054 3.044 3.044 0 0 1 3.034 3.053z"/><g><path d="M234.934 97.733c0 6.497-5.24 11.762-11.703 11.762-6.463 0-11.703-5.266-11.703-11.762s5.24-11.763 11.703-11.763c6.463 0 11.703 5.267 11.703 11.763z" stroke="#010101" stroke-width="3.169" stroke-linecap="round"/><path d="M222.042 93.613a3.043 3.043 0 0 1-3.036 3.051 3.043 3.043 0 0 1-3.036-3.05 3.044 3.044 0 0 1 3.036-3.054 3.047 3.047 0 0 1 3.036 3.053z"/></g><path d="M217.712 53.113c10.33-47.667 27.75-54.12 27.75-54.12s-9.69 24.865-.913 17.948c13.59-10.71 56.797 22.853 56.797 22.853S244.1 14.41 217.712 53.113zM194.027 53.113c-10.33-47.667-27.75-54.12-27.75-54.12s9.689 24.865.913 17.948c-13.59-10.71-56.797 22.853-56.797 22.853s57.246-25.384 83.634 13.319z" fill-rule="evenodd" stroke="#000" stroke-width="3.781" stroke-linejoin="round"/></g><g transform="matrix(.0401 0 0 .0401 81.402 61.923)"><title>Layer 1</title><path d="M317.664 264.433c-68.15 24.632 20.065 134.041-53.572 229.504-13.61 17.647 81.973 2.977 115.767-94.804 32.861-95.09 1.603-153.113-62.195-134.7z" fill="#fff" stroke="#010101" stroke-width="4"/><path d="M317.664 264.433c-68.15 24.632 20.065 134.041-53.572 229.504-13.61 17.647 81.973 2.977 115.767-94.804 32.861-95.09 1.603-153.113-62.195-134.7z" fill="#fff6d5" stroke="#010101" stroke-width="4"/><path d="M339.988 261.032c-.584 0-1.179.03-1.77.044 22.965 18.6 32.684 61.646 20.938 121.513-15.615 79.583-75.895 113.915-95.93 115.728 6.506 9.292 86.37-11.57 116.647-99.176 28.755-83.203 8.387-138.038-39.885-138.109z" fill="#010101" fill-opacity=".314"/><path d="M96.053 264.433c68.153 24.632-20.063 134.041 53.574 229.504 13.61 17.647-81.975 2.977-115.767-94.804-32.86-95.09-1.602-153.113 62.193-134.7z" fill="#fff6d5" stroke="#010101" stroke-width="4"/><path d="M22.853 306.861c-4.888 23.501-1.84 55.063 11.023 92.281 33.792 97.78 129.37 112.46 115.76 94.817-5.82-7.547-10.654-15.198-14.609-22.871-26.845-6.465-76.562-34.707-99.026-99.71-8.327-24.102-12.541-45.82-13.148-64.517zm100.975 9.031c-1.25 12.154-2.628 25.075-3.231 38.621 1.406-13.94 2.946-26.968 3.23-38.62z" fill="#010101" fill-opacity=".314"/><path d="M156.877 464.844C88.763 471.89 10.64 527.289 41.692 539.37c31.051 12.08 121.175 17.12 138.204 3.025 8.75-7.243 24.406-25.382 26.25-42.402 1.848 17.019 17.458 35.16 26.207 42.402 17.028 14.095 107.197 9.056 138.249-3.025 31.051-12.082-47.072-67.48-115.185-74.527-35.074 3.397-47.69 15.243-49.27 28.832-1.58-13.59-14.197-25.435-49.27-28.832z" fill="url(#p)" fill-rule="evenodd" stroke="#000" stroke-width="5"/><path d="M156.888 464.864c-33.432 3.459-69.244 18.566-93.405 34.483 36.593 17.01 81.336 27.492 129.837 28.698 6.215-8.219 11.783-18.296 12.838-28.031 1.047 9.644 6.484 19.632 12.616 27.809 47.705-2.03 91.52-13.022 127.182-30.345-24.076-15.222-58.395-29.29-90.528-32.614-35.074 3.398-47.69 15.243-49.27 28.832-1.58-13.59-14.196-25.434-49.27-28.832z" fill-opacity=".314" fill-rule="evenodd"/><path d="M362.027 365.002c.026 86.151-69.453 156.005-155.167 156.005S51.668 451.152 51.695 365.002c-.027-86.151 69.451-156.004 155.165-156.004 85.714-.002 155.191 69.853 155.167 156.004z" fill="#fff6d5" stroke="#010101" stroke-width="4" stroke-linecap="round" stroke-linejoin="round"/><path d="M352.648 311.497c.108 2.395.177 4.834.177 7.253 0 86.09-69.507 155.952-155.158 155.952-66.952 0-124.08-42.714-145.82-102.471 3.759 82.741 71.784 148.744 155.027 148.744 85.65 0 155.159-69.862 155.159-155.952 0-18.797-3.312-36.833-9.385-53.526z" fill="#010101" fill-opacity=".314"/><path d="M246.256 178.71l-86.012 2.225s2.107 19.98-2.7 41.824a153.88 153.88 0 0 0-21.47 9.121c24.034 20.176 52.046 32.57 69.81 32.57 18.595 0 46.883-12.608 70.872-33.06-7.942-4.035-16.267-7.425-24.922-10.055-6.273-22.209-5.578-42.625-5.578-42.625z" opacity=".32" fill="#010101" stroke="#010101" stroke-width="4" stroke-linecap="round" stroke-linejoin="round"/><path d="M276.445 257.443c-.247 15.476-31.87 24.205-71.183 24.205s-71.182-10.837-71.182-24.205c14.353-11.626 31.87-24.204 71.182-24.204 39.314 0 52.128 7.734 71.183 24.204z" fill="#fff6d5" stroke="#000" stroke-width="3"/><path d="M134.78 258.7c35.121-25.382 25.453-83.478 25.453-83.478l83.29-4.924s-2.15 61.268 33.689 87.089" fill="#fff6d5" stroke="#010101" stroke-width="4" stroke-linecap="round" stroke-linejoin="round"/><path d="M244.742 181.64l-81.306 2.12s.065.869.167 2.501c.052.767.076 1.333.125 2.502.01.186.035.313.042.509.021.552.026.985.042 1.61.006.182-.004.365 0 .552.021.958.041 1.95.042 3.053 0 .848-.026 1.703-.042 2.628-.006.283.007.517 0 .806a143.344 143.344 0 0 1-.21 4.96c-.01.163.01.303 0 .467.78 5.309.202 8.317-2.484 20.267-1.403 6.428-3.65 13.035-6.554 19.291 18.95 12.87 38.91 26.135 52.346 26.135 13.776 0 32.85-11.753 51.516-24.327-3.73-6.802-8.045-16.454-10.027-23.528-3.28-9.711-1.786-13.558-2.652-21.06a157.463 157.463 0 0 1-.586-6.106c-.142-1.874-.23-3.582-.293-5.088a139.77 139.77 0 0 1-.126-3.943c-.025-2.065 0-3.35 0-3.35z" opacity=".32" fill="#010101" stroke="#010101" stroke-width="3.796" stroke-linecap="round" stroke-linejoin="round"/><path d="M275.207 26.699c-18.441-13.041-41.848-20.69-69.338-20.69-25.014 0-46.352 5.976-63.66 16.359-19.798 13.753-35.697 33.735-45.45 57.467-4.494 13.227-6.827 27.626-6.827 42.703 0 64.32 79.505 116.529 115.938 116.529 37.847 0 115.936-52.21 115.936-116.53 0-15.536-2.593-30.355-7.512-43.911-8.79-20.827-22.332-38.707-39.087-51.927z" fill="#fff6d5" stroke="#010101" stroke-width="4" stroke-linecap="round" stroke-linejoin="round"/><path d="M211.364 133.091c-15.8 0-32.977 16.64-32.288 27.145 9.487 37.207-30.663 54.29 34.35 54.29 65.014 0 17.664-33.548 29.542-55.167-.685-12.256-21.293-27.142-31.604-26.268z" opacity=".32" fill="#010101" stroke="#010101" stroke-width="6.091"/><path d="M209.68 123.468c-23.567 0-49.188 24.604-48.16 40.138 14.151 55.018-45.737 80.278 51.236 80.278 96.972 0 26.347-49.607 44.064-81.574-1.022-18.124-31.76-40.135-47.14-38.842z" fill="url(#q)" stroke="#010101" stroke-width="4"/><path d="M175.721 47.554c-22.31 0-40.427 21.056-40.427 46.999s18.118 46.997 40.427 46.997c13.11 0 24.742-7.279 32.127-18.541 7.384 11.27 19.042 18.54 32.159 18.54 22.306 0 40.426-21.055 40.426-46.996 0-25.945-18.12-46.999-40.426-46.999-13.115 0-24.775 7.273-32.16 18.543-7.384-11.26-19.02-18.543-32.126-18.543z" fill="#fff" stroke="#010101" stroke-width="5" stroke-linecap="round"/><path d="M205.294 97.733c0 6.497-5.24 11.762-11.703 11.762-6.464 0-11.703-5.266-11.703-11.762s5.24-11.763 11.703-11.763c6.463 0 11.703 5.267 11.703 11.763z" fill="#010101" stroke="#010101" stroke-width="3.169" stroke-linecap="round"/><path d="M192.401 93.613a3.041 3.041 0 0 1-3.034 3.051 3.043 3.043 0 0 1-3.036-3.05 3.044 3.044 0 0 1 3.036-3.054 3.044 3.044 0 0 1 3.034 3.053z" fill="#fff"/><g><path d="M234.934 97.733c0 6.497-5.24 11.762-11.703 11.762-6.463 0-11.703-5.266-11.703-11.762s5.24-11.763 11.703-11.763c6.463 0 11.703 5.267 11.703 11.763z" fill="#010101" stroke="#010101" stroke-width="3.169" stroke-linecap="round"/><path d="M222.042 93.613a3.043 3.043 0 0 1-3.036 3.051 3.043 3.043 0 0 1-3.036-3.05 3.044 3.044 0 0 1 3.036-3.054 3.047 3.047 0 0 1 3.036 3.053z" fill="#fff"/></g><path d="M217.712 53.113c10.33-47.667 27.75-54.12 27.75-54.12s-9.69 24.865-.913 17.948c13.59-10.71 56.797 22.853 56.797 22.853S244.1 14.41 217.712 53.113zM194.027 53.113c-10.33-47.667-27.75-54.12-27.75-54.12s9.689 24.865.913 17.948c-13.59-10.71-56.797 22.853-56.797 22.853s57.246-25.384 83.634 13.319z" fill="#8a916f" fill-rule="evenodd" stroke="#000" stroke-width="3.781" stroke-linejoin="round"/></g></g><g><g transform="matrix(.0401 0 0 .0401 68.108 61.556)" filter="url(#i)"><title>Layer 1</title><path d="M317.664 264.433c-68.15 24.632 20.065 134.041-53.572 229.504-13.61 17.647 81.973 2.977 115.767-94.804 32.861-95.09 1.603-153.113-62.195-134.7z" stroke="#010101" stroke-width="4"/><path d="M317.664 264.433c-68.15 24.632 20.065 134.041-53.572 229.504-13.61 17.647 81.973 2.977 115.767-94.804 32.861-95.09 1.603-153.113-62.195-134.7z" stroke="#010101" stroke-width="4"/><path d="M339.988 261.032c-.584 0-1.179.03-1.77.044 22.965 18.6 32.684 61.646 20.938 121.513-15.615 79.583-75.895 113.915-95.93 115.728 6.506 9.292 86.37-11.57 116.647-99.176 28.755-83.203 8.387-138.038-39.885-138.109z" fill-opacity=".314"/><path d="M96.053 264.433c68.153 24.632-20.063 134.041 53.574 229.504 13.61 17.647-81.975 2.977-115.767-94.804-32.86-95.09-1.602-153.113 62.193-134.7z" stroke="#010101" stroke-width="4"/><path d="M22.853 306.861c-4.888 23.501-1.84 55.063 11.023 92.281 33.792 97.78 129.37 112.46 115.76 94.817-5.82-7.547-10.654-15.198-14.609-22.871-26.845-6.465-76.562-34.707-99.026-99.71-8.327-24.102-12.541-45.82-13.148-64.517zm100.975 9.031c-1.25 12.154-2.628 25.075-3.231 38.621 1.406-13.94 2.946-26.968 3.23-38.62z" fill-opacity=".314"/><path d="M156.877 464.844C88.763 471.89 10.64 527.289 41.692 539.37c31.051 12.08 121.175 17.12 138.204 3.025 8.75-7.243 24.406-25.382 26.25-42.402 1.848 17.019 17.458 35.16 26.207 42.402 17.028 14.095 107.197 9.056 138.249-3.025 31.051-12.082-47.072-67.48-115.185-74.527-35.074 3.397-47.69 15.243-49.27 28.832-1.58-13.59-14.197-25.435-49.27-28.832z" fill-rule="evenodd" stroke="#000" stroke-width="5"/><path d="M156.888 464.864c-33.432 3.459-69.244 18.566-93.405 34.483 36.593 17.01 81.336 27.492 129.837 28.698 6.215-8.219 11.783-18.296 12.838-28.031 1.047 9.644 6.484 19.632 12.616 27.809 47.705-2.03 91.52-13.022 127.182-30.345-24.076-15.222-58.395-29.29-90.528-32.614-35.074 3.398-47.69 15.243-49.27 28.832-1.58-13.59-14.196-25.434-49.27-28.832z" fill-opacity=".314" fill-rule="evenodd"/><path d="M362.027 365.002c.026 86.151-69.453 156.005-155.167 156.005S51.668 451.152 51.695 365.002c-.027-86.151 69.451-156.004 155.165-156.004 85.714-.002 155.191 69.853 155.167 156.004z" stroke="#010101" stroke-width="4" stroke-linecap="round" stroke-linejoin="round"/><path d="M352.648 311.497c.108 2.395.177 4.834.177 7.253 0 86.09-69.507 155.952-155.158 155.952-66.952 0-124.08-42.714-145.82-102.471 3.759 82.741 71.784 148.744 155.027 148.744 85.65 0 155.159-69.862 155.159-155.952 0-18.797-3.312-36.833-9.385-53.526z" fill-opacity=".314"/><path d="M246.256 178.71l-86.012 2.225s2.107 19.98-2.7 41.824a153.88 153.88 0 0 0-21.47 9.121c24.034 20.176 52.046 32.57 69.81 32.57 18.595 0 46.883-12.608 70.872-33.06-7.942-4.035-16.267-7.425-24.922-10.055-6.273-22.209-5.578-42.625-5.578-42.625z" opacity=".32" stroke="#010101" stroke-width="4" stroke-linecap="round" stroke-linejoin="round"/><path d="M276.445 257.443c-.247 15.476-31.87 24.205-71.183 24.205s-71.182-10.837-71.182-24.205c14.353-11.626 31.87-24.204 71.182-24.204 39.314 0 52.128 7.734 71.183 24.204z" stroke="#000" stroke-width="3"/><path d="M134.78 258.7c35.121-25.382 25.453-83.478 25.453-83.478l83.29-4.924s-2.15 61.268 33.689 87.089" stroke="#010101" stroke-width="4" stroke-linecap="round" stroke-linejoin="round"/><path d="M244.742 181.64l-81.306 2.12s.065.869.167 2.501c.052.767.076 1.333.125 2.502.01.186.035.313.042.509.021.552.026.985.042 1.61.006.182-.004.365 0 .552.021.958.041 1.95.042 3.053 0 .848-.026 1.703-.042 2.628-.006.283.007.517 0 .806a143.344 143.344 0 0 1-.21 4.96c-.01.163.01.303 0 .467.78 5.309.202 8.317-2.484 20.267-1.403 6.428-3.65 13.035-6.554 19.291 18.95 12.87 38.91 26.135 52.346 26.135 13.776 0 32.85-11.753 51.516-24.327-3.73-6.802-8.045-16.454-10.027-23.528-3.28-9.711-1.786-13.558-2.652-21.06a157.463 157.463 0 0 1-.586-6.106c-.142-1.874-.23-3.582-.293-5.088a139.77 139.77 0 0 1-.126-3.943c-.025-2.065 0-3.35 0-3.35z" opacity=".32" stroke="#010101" stroke-width="3.796" stroke-linecap="round" stroke-linejoin="round"/><path d="M275.207 26.699c-18.441-13.041-41.848-20.69-69.338-20.69-25.014 0-46.352 5.976-63.66 16.359-19.798 13.753-35.697 33.735-45.45 57.467-4.494 13.227-6.827 27.626-6.827 42.703 0 64.32 79.505 116.529 115.938 116.529 37.847 0 115.936-52.21 115.936-116.53 0-15.536-2.593-30.355-7.512-43.911-8.79-20.827-22.332-38.707-39.087-51.927z" stroke="#010101" stroke-width="4" stroke-linecap="round" stroke-linejoin="round"/><path d="M211.364 133.091c-15.8 0-32.977 16.64-32.288 27.145 9.487 37.207-30.663 54.29 34.35 54.29 65.014 0 17.664-33.548 29.542-55.167-.685-12.256-21.293-27.142-31.604-26.268z" opacity=".32" stroke="#010101" stroke-width="6.091"/><path d="M209.68 123.468c-23.567 0-49.188 24.604-48.16 40.138 14.151 55.018-45.737 80.278 51.236 80.278 96.972 0 26.347-49.607 44.064-81.574-1.022-18.124-31.76-40.135-47.14-38.842z" stroke="#010101" stroke-width="4"/><path d="M175.721 47.554c-22.31 0-40.427 21.056-40.427 46.999s18.118 46.997 40.427 46.997c13.11 0 24.742-7.279 32.127-18.541 7.384 11.27 19.042 18.54 32.159 18.54 22.306 0 40.426-21.055 40.426-46.996 0-25.945-18.12-46.999-40.426-46.999-13.115 0-24.775 7.273-32.16 18.543-7.384-11.26-19.02-18.543-32.126-18.543z" stroke="#010101" stroke-width="5" stroke-linecap="round"/><path d="M205.294 97.733c0 6.497-5.24 11.762-11.703 11.762-6.464 0-11.703-5.266-11.703-11.762s5.24-11.763 11.703-11.763c6.463 0 11.703 5.267 11.703 11.763z" stroke="#010101" stroke-width="3.169" stroke-linecap="round"/><path d="M192.401 93.613a3.041 3.041 0 0 1-3.034 3.051 3.043 3.043 0 0 1-3.036-3.05 3.044 3.044 0 0 1 3.036-3.054 3.044 3.044 0 0 1 3.034 3.053z"/><g><path d="M234.934 97.733c0 6.497-5.24 11.762-11.703 11.762-6.463 0-11.703-5.266-11.703-11.762s5.24-11.763 11.703-11.763c6.463 0 11.703 5.267 11.703 11.763z" stroke="#010101" stroke-width="3.169" stroke-linecap="round"/><path d="M222.042 93.613a3.043 3.043 0 0 1-3.036 3.051 3.043 3.043 0 0 1-3.036-3.05 3.044 3.044 0 0 1 3.036-3.054 3.047 3.047 0 0 1 3.036 3.053z"/></g><path d="M217.712 53.113c10.33-47.667 27.75-54.12 27.75-54.12s-9.69 24.865-.913 17.948c13.59-10.71 56.797 22.853 56.797 22.853S244.1 14.41 217.712 53.113zM194.027 53.113c-10.33-47.667-27.75-54.12-27.75-54.12s9.689 24.865.913 17.948c-13.59-10.71-56.797 22.853-56.797 22.853s57.246-25.384 83.634 13.319z" fill-rule="evenodd" stroke="#000" stroke-width="3.781" stroke-linejoin="round"/></g><g transform="matrix(.0401 0 0 .0401 68.108 61.544)"><title>Layer 1</title><path d="M317.664 264.433c-68.15 24.632 20.065 134.041-53.572 229.504-13.61 17.647 81.973 2.977 115.767-94.804 32.861-95.09 1.603-153.113-62.195-134.7z" fill="#fff" stroke="#010101" stroke-width="4"/><path d="M317.664 264.433c-68.15 24.632 20.065 134.041-53.572 229.504-13.61 17.647 81.973 2.977 115.767-94.804 32.861-95.09 1.603-153.113-62.195-134.7z" fill="#fff6d5" stroke="#010101" stroke-width="4"/><path d="M339.988 261.032c-.584 0-1.179.03-1.77.044 22.965 18.6 32.684 61.646 20.938 121.513-15.615 79.583-75.895 113.915-95.93 115.728 6.506 9.292 86.37-11.57 116.647-99.176 28.755-83.203 8.387-138.038-39.885-138.109z" fill="#010101" fill-opacity=".314"/><path d="M96.053 264.433c68.153 24.632-20.063 134.041 53.574 229.504 13.61 17.647-81.975 2.977-115.767-94.804-32.86-95.09-1.602-153.113 62.193-134.7z" fill="#fff6d5" stroke="#010101" stroke-width="4"/><path d="M22.853 306.861c-4.888 23.501-1.84 55.063 11.023 92.281 33.792 97.78 129.37 112.46 115.76 94.817-5.82-7.547-10.654-15.198-14.609-22.871-26.845-6.465-76.562-34.707-99.026-99.71-8.327-24.102-12.541-45.82-13.148-64.517zm100.975 9.031c-1.25 12.154-2.628 25.075-3.231 38.621 1.406-13.94 2.946-26.968 3.23-38.62z" fill="#010101" fill-opacity=".314"/><path d="M156.877 464.844C88.763 471.89 10.64 527.289 41.692 539.37c31.051 12.08 121.175 17.12 138.204 3.025 8.75-7.243 24.406-25.382 26.25-42.402 1.848 17.019 17.458 35.16 26.207 42.402 17.028 14.095 107.197 9.056 138.249-3.025 31.051-12.082-47.072-67.48-115.185-74.527-35.074 3.397-47.69 15.243-49.27 28.832-1.58-13.59-14.197-25.435-49.27-28.832z" fill="url(#r)" fill-rule="evenodd" stroke="#000" stroke-width="5"/><path d="M156.888 464.864c-33.432 3.459-69.244 18.566-93.405 34.483 36.593 17.01 81.336 27.492 129.837 28.698 6.215-8.219 11.783-18.296 12.838-28.031 1.047 9.644 6.484 19.632 12.616 27.809 47.705-2.03 91.52-13.022 127.182-30.345-24.076-15.222-58.395-29.29-90.528-32.614-35.074 3.398-47.69 15.243-49.27 28.832-1.58-13.59-14.196-25.434-49.27-28.832z" fill-opacity=".314" fill-rule="evenodd"/><path d="M362.027 365.002c.026 86.151-69.453 156.005-155.167 156.005S51.668 451.152 51.695 365.002c-.027-86.151 69.451-156.004 155.165-156.004 85.714-.002 155.191 69.853 155.167 156.004z" fill="#fff6d5" stroke="#010101" stroke-width="4" stroke-linecap="round" stroke-linejoin="round"/><path d="M352.648 311.497c.108 2.395.177 4.834.177 7.253 0 86.09-69.507 155.952-155.158 155.952-66.952 0-124.08-42.714-145.82-102.471 3.759 82.741 71.784 148.744 155.027 148.744 85.65 0 155.159-69.862 155.159-155.952 0-18.797-3.312-36.833-9.385-53.526z" fill="#010101" fill-opacity=".314"/><path d="M246.256 178.71l-86.012 2.225s2.107 19.98-2.7 41.824a153.88 153.88 0 0 0-21.47 9.121c24.034 20.176 52.046 32.57 69.81 32.57 18.595 0 46.883-12.608 70.872-33.06-7.942-4.035-16.267-7.425-24.922-10.055-6.273-22.209-5.578-42.625-5.578-42.625z" opacity=".32" fill="#010101" stroke="#010101" stroke-width="4" stroke-linecap="round" stroke-linejoin="round"/><path d="M276.445 257.443c-.247 15.476-31.87 24.205-71.183 24.205s-71.182-10.837-71.182-24.205c14.353-11.626 31.87-24.204 71.182-24.204 39.314 0 52.128 7.734 71.183 24.204z" fill="#fff6d5" stroke="#000" stroke-width="3"/><path d="M134.78 258.7c35.121-25.382 25.453-83.478 25.453-83.478l83.29-4.924s-2.15 61.268 33.689 87.089" fill="#fff6d5" stroke="#010101" stroke-width="4" stroke-linecap="round" stroke-linejoin="round"/><path d="M244.742 181.64l-81.306 2.12s.065.869.167 2.501c.052.767.076 1.333.125 2.502.01.186.035.313.042.509.021.552.026.985.042 1.61.006.182-.004.365 0 .552.021.958.041 1.95.042 3.053 0 .848-.026 1.703-.042 2.628-.006.283.007.517 0 .806a143.344 143.344 0 0 1-.21 4.96c-.01.163.01.303 0 .467.78 5.309.202 8.317-2.484 20.267-1.403 6.428-3.65 13.035-6.554 19.291 18.95 12.87 38.91 26.135 52.346 26.135 13.776 0 32.85-11.753 51.516-24.327-3.73-6.802-8.045-16.454-10.027-23.528-3.28-9.711-1.786-13.558-2.652-21.06a157.463 157.463 0 0 1-.586-6.106c-.142-1.874-.23-3.582-.293-5.088a139.77 139.77 0 0 1-.126-3.943c-.025-2.065 0-3.35 0-3.35z" opacity=".32" fill="#010101" stroke="#010101" stroke-width="3.796" stroke-linecap="round" stroke-linejoin="round"/><path d="M275.207 26.699c-18.441-13.041-41.848-20.69-69.338-20.69-25.014 0-46.352 5.976-63.66 16.359-19.798 13.753-35.697 33.735-45.45 57.467-4.494 13.227-6.827 27.626-6.827 42.703 0 64.32 79.505 116.529 115.938 116.529 37.847 0 115.936-52.21 115.936-116.53 0-15.536-2.593-30.355-7.512-43.911-8.79-20.827-22.332-38.707-39.087-51.927z" fill="#fff6d5" stroke="#010101" stroke-width="4" stroke-linecap="round" stroke-linejoin="round"/><path d="M211.364 133.091c-15.8 0-32.977 16.64-32.288 27.145 9.487 37.207-30.663 54.29 34.35 54.29 65.014 0 17.664-33.548 29.542-55.167-.685-12.256-21.293-27.142-31.604-26.268z" opacity=".32" fill="#010101" stroke="#010101" stroke-width="6.091"/><path d="M209.68 123.468c-23.567 0-49.188 24.604-48.16 40.138 14.151 55.018-45.737 80.278 51.236 80.278 96.972 0 26.347-49.607 44.064-81.574-1.022-18.124-31.76-40.135-47.14-38.842z" fill="url(#s)" stroke="#010101" stroke-width="4"/><path d="M175.721 47.554c-22.31 0-40.427 21.056-40.427 46.999s18.118 46.997 40.427 46.997c13.11 0 24.742-7.279 32.127-18.541 7.384 11.27 19.042 18.54 32.159 18.54 22.306 0 40.426-21.055 40.426-46.996 0-25.945-18.12-46.999-40.426-46.999-13.115 0-24.775 7.273-32.16 18.543-7.384-11.26-19.02-18.543-32.126-18.543z" fill="#fff" stroke="#010101" stroke-width="5" stroke-linecap="round"/><path d="M205.294 97.733c0 6.497-5.24 11.762-11.703 11.762-6.464 0-11.703-5.266-11.703-11.762s5.24-11.763 11.703-11.763c6.463 0 11.703 5.267 11.703 11.763z" fill="#010101" stroke="#010101" stroke-width="3.169" stroke-linecap="round"/><path d="M192.401 93.613a3.041 3.041 0 0 1-3.034 3.051 3.043 3.043 0 0 1-3.036-3.05 3.044 3.044 0 0 1 3.036-3.054 3.044 3.044 0 0 1 3.034 3.053z" fill="#fff"/><g><path d="M234.934 97.733c0 6.497-5.24 11.762-11.703 11.762-6.463 0-11.703-5.266-11.703-11.762s5.24-11.763 11.703-11.763c6.463 0 11.703 5.267 11.703 11.763z" fill="#010101" stroke="#010101" stroke-width="3.169" stroke-linecap="round"/><path d="M222.042 93.613a3.043 3.043 0 0 1-3.036 3.051 3.043 3.043 0 0 1-3.036-3.05 3.044 3.044 0 0 1 3.036-3.054 3.047 3.047 0 0 1 3.036 3.053z" fill="#fff"/></g><path d="M217.712 53.113c10.33-47.667 27.75-54.12 27.75-54.12s-9.69 24.865-.913 17.948c13.59-10.71 56.797 22.853 56.797 22.853S244.1 14.41 217.712 53.113zM194.027 53.113c-10.33-47.667-27.75-54.12-27.75-54.12s9.689 24.865.913 17.948c-13.59-10.71-56.797 22.853-56.797 22.853s57.246-25.384 83.634 13.319z" fill="#8a916f" fill-rule="evenodd" stroke="#000" stroke-width="3.781" stroke-linejoin="round"/></g></g><path d="M7 5h86c1.108 0 2 .892 2 2v76c0 1.108-.892 2-2 2H7c-1.108 0-2-.892-2-2V7c0-1.108.892-2 2-2zM0 0h100v100H0z" fill="#dfe0e5" fill-rule="evenodd" stroke="#000" stroke-linecap="round" stroke-linejoin="round"/></g></svg>